<svg xmlns="http://www.w3.org/2000/svg" viewBox="0 0 31.33 14.7"><g id="Layer_2" data-name="Layer 2"><g id="Layer_1-2" data-name="Layer 1"><path d="M0,0H2.39V2.52H0ZM0,4H2.39v10.5H0Z"/><path d="M13.63,14.49H11.24V7.56a1.41,1.41,0,0,0-.52-1.15A2,2,0,0,0,9.41,6a1.93,1.93,0,0,0-1,.25,1.87,1.87,0,0,0-.64.64,2.74,2.74,0,0,0-.33.85,4.61,4.61,0,0,0-.09.88v5.88H4.91V4H7.22v.84a5.29,5.29,0,0,1,1.44-.78,4.92,4.92,0,0,1,1.59-.27A4.24,4.24,0,0,1,11.54,4a3,3,0,0,1,1.08.59,2.8,2.8,0,0,1,.74,1,3.66,3.66,0,0,1,.27,1.48Z"/><path d="M16.48,14.49V6.3H15.22V4h1.26V2.27a2.77,2.77,0,0,1,.13-.78A2,2,0,0,1,17,.76a2.15,2.15,0,0,1,.71-.55,2.32,2.32,0,0,1,1-.21,10.45,10.45,0,0,1,1.12.05l.54.08V2.44l-.3,0a3.33,3.33,0,0,0-.48,0,1,1,0,0,0-.57.17.68.68,0,0,0-.27.63V4h1.47V6.3H18.79v8.19Z"/><path d="M21.25,9.32a6.26,6.26,0,0,1,.35-2.05,5.27,5.27,0,0,1,1-1.78,5.09,5.09,0,0,1,1.58-1.24,5,5,0,0,1,4.22,0A5.13,5.13,0,0,1,30,5.49a5.63,5.63,0,0,1,1,1.78,6.25,6.25,0,0,1,.34,2.05,6.32,6.32,0,0,1-.31,2A5.16,5.16,0,0,1,30.07,13a5,5,0,0,1-7.56,0,5.14,5.14,0,0,1-.94-1.72A6.33,6.33,0,0,1,21.25,9.32ZM29,9.24A3.42,3.42,0,0,0,28.28,7a2.7,2.7,0,0,0-4,0,3.37,3.37,0,0,0-.75,2.28,3.27,3.27,0,0,0,.77,2.33,2.54,2.54,0,0,0,2,.82,2.58,2.58,0,0,0,2-.82A3.27,3.27,0,0,0,29,9.24Z"/></g></g></svg>