<svg xmlns="http://www.w3.org/2000/svg" viewBox="0 0 152.25 33.6"><g id="Layer_2" data-name="Layer 2"><g id="Layer_1-2" data-name="Layer 1"><path d="M14.5,33.6A13.64,13.64,0,0,1,4.22,29.06a15.8,15.8,0,0,1-3.09-5.3A20.4,20.4,0,0,1,0,16.8a20.4,20.4,0,0,1,1.13-7A15.93,15.93,0,0,1,4.2,4.54,13.19,13.19,0,0,1,8.81,1.18,13.81,13.81,0,0,1,14.5,0a14,14,0,0,1,5.71,1.18,13.34,13.34,0,0,1,4.65,3.36A15.65,15.65,0,0,1,28,9.84a20.4,20.4,0,0,1,1.13,7,20.16,20.16,0,0,1-1.15,7,16,16,0,0,1-3.13,5.3,13.36,13.36,0,0,1-4.63,3.36A13.8,13.8,0,0,1,14.5,33.6Zm0-5.71a7.64,7.64,0,0,0,6.16-2.95q2.43-3,2.43-8.14T20.66,8.66A7.64,7.64,0,0,0,14.5,5.71a7.6,7.6,0,0,0-6.15,3Q6,11.62,6,16.8t2.4,8.14A7.6,7.6,0,0,0,14.5,27.89Z"/><path d="M35.57,33.12V.48H55V5.9H41.28v6.68H53.71V18H41.28V30.34c0,.57,0,1.1,0,1.58a3.85,3.85,0,0,0,.24,1.2Z"/><path d="M60.57,33.12V.48H80V5.9H66.29v6.68H78.72V18H66.29V30.34c0,.57,0,1.1,0,1.58a4.53,4.53,0,0,0,.24,1.2Z"/><path d="M85.58,33.12V.48h5.71V33.12Z"/><path d="M120.33,19.58h6a14.58,14.58,0,0,1-4.08,10.18,13.51,13.51,0,0,1-10,3.84,14.48,14.48,0,0,1-5.5-1.06,12.89,12.89,0,0,1-4.6-3.16A15.33,15.33,0,0,1,99,24.12a20.74,20.74,0,0,1-1.18-7.32A21.73,21.73,0,0,1,99,9.48,15.31,15.31,0,0,1,102,4.22a12.56,12.56,0,0,1,4.58-3.16A15,15,0,0,1,112.27,0,13.35,13.35,0,0,1,122,3.7q3.76,3.69,4.29,10.65H119.9q-.37-4.56-2.54-6.6a7.47,7.47,0,0,0-5.33-2,7.35,7.35,0,0,0-6,2.76q-2.27,2.76-2.26,8.33t2.28,8.33a7.38,7.38,0,0,0,6,2.76,6.81,6.81,0,0,0,5-1.85Q118.9,24.2,120.33,19.58Z"/><path d="M132.29,33.12V.48h20V5.9H138v6.68h13.49V18H138v9.7h14.25v5.42Z"/></g></g></svg>